
<svg id="efOYpnKjkiR1" width="25px" height="20px" xmlns="http://www.w3.org/2000/svg" xmlns:xlink="http://www.w3.org/1999/xlink"  viewBox="0 0 640 480" shape-rendering="geometricPrecision" text-rendering="geometricPrecision"><g id="efOYpnKjkiR2" transform="matrix(1 0 0 1 0.000001 0)" ><g id="efOYpnKjkiR3" transform="matrix(1 0 0 1 -4.529119 -17.787281)">

<path id="efOYpnKjkiR8" d="M189.494502,-97.537553C419.711559,-94.848109,706.696573,137.911559,604.676252,130.87401C502.65593,123.836462,416.385358,352.235678,186.168302,349.546211C-44.048755,346.856767,-309.089652,136.110305,-229.013448,121.134648C-148.937244,106.158991,-38.855445,-73.49383,189.494502,-97.537553Z" transform="matrix(0.725218 0 0 0.852789 180.286811 123.406505)" fill="rgb(255,255,255)" stroke="rgb(0,0,0)" stroke-width="4" stroke-linecap="round"/>

<ellipse id="efOYpnKjkiR4" rx="111.98914" ry="95.401496" transform="matrix(1.354429 0 0 1.499998 323.897993 248.657966)" fill="none" stroke="rgb(0,0,0)" stroke-width="2"/>



<ellipse id="efOYpnKjkiR6" rx="57.924006" ry="57.326569" transform="matrix(1 0 0 1 321.375345 249.995089)" fill="rgb(0,0,0)" stroke="rgb(0,0,0)"  stroke-width="1.5"/>

<ellipse id="efOYpnKjkiR7" rx="50.924006" ry="50.326569" transform="matrix(1 0 0 1 321.375345 249.995089)" fill="none" stroke="rgb(222,207,71)" stroke-dasharray="2" stroke-width="2.5"/>

</g>



</g>


<animate xlink:href="#efOYpnKjkiR7" attributeName="rx" from="-50.924006" to="50.924006" values="50.924006;0;50.924006" dur="5s" repeatCount="indefinite" />
<animate xlink:href="#efOYpnKjkiR6" attributeName="rx" from="-57.924006" to="57.924006" values="57.924006;0;57.924006" dur="5s" repeatCount="indefinite" />

<animate xlink:href="#efOYpnKjkiR4" attributeName="rx" from="111.98914" to="111.98914" values="111.98914;0;111.98914" dur="5s" repeatCount="indefinite" />
<animate xlink:href="#efOYpnKjkiR4" attributeName="fill" from="rgb(64,60,31)" to="rgb(55,136,229)" values="rgb(64,60,31);rgb(55,229,198);rgb(55,229,166);rgb(58,229,55);rgb(55,136,229)" dur="5s" repeatCount="indefinite" />
    </svg>