<svg id="euJO3o0zWsM1" width='25px' height='20px' xmlns="http://www.w3.org/2000/svg" xmlns:xlink="http://www.w3.org/1999/xlink" viewBox="0 0 640 480" shape-rendering="geometricPrecision" text-rendering="geometricPrecision">
<g>
<polygon id="euJO3o0zWsM2" points="0,-162.670938 140.877164,81.335469 -140.877164,81.335469 0,-162.670938" transform="matrix(1.668626 0 0 1.650812 322.849636 302.489989)" paint-order="stroke markers fill" fill="rgb(0,0,0)" stroke="rgb(255,255,255)" stroke-width="2"/>
<polygon id="euJO3o0zWsM3" points="0,-162.670938 140.877164,81.335469 -140.877164,81.335469 0,-162.670938" transform="matrix(1.482778 0 0 1.511033 322.849636 302.489989)" paint-order="stroke markers fill" fill="none" stroke="rgb(255,255,255)" stroke-width="2"/>
<polygon id="euJO3o0zWsM4" points="0,-162.670938 140.877164,81.335469 -140.877164,81.335469 0,-162.670938" transform="matrix(1.289707 0 0 1.327907 322.849636 302.489989)" paint-order="stroke markers fill" fill="none" stroke="rgb(255,255,255)" stroke-width="2"/><polygon id="euJO3o0zWsM5" points="0,-162.670938 140.877164,81.335469 -140.877164,81.335469 0,-162.670938" transform="matrix(1.100659 0 0 1.10225 322.849636 302.489989)" paint-order="stroke markers fill" fill="none" stroke="rgb(255,255,255)" stroke-width="2"/><polygon id="euJO3o0zWsM6" points="0,-162.670938 140.877164,81.335469 -140.877164,81.335469 0,-162.670938" transform="matrix(0.747279 0 0 0.850187 322.849636 302.489989)" paint-order="stroke markers fill" fill="none" stroke="rgb(255,255,255)" stroke-width="2"/><polygon id="euJO3o0zWsM7" points="0,-162.670938 140.877164,81.335469 -140.877164,81.335469 0,-162.670938" transform="matrix(0.517439 0 0 0.635213 322.849636 302.489989)" paint-order="stroke markers fill" fill="none" stroke="rgb(255,255,255)" stroke-width="2"/><path id="euJO3o0zWsM8" d="M192.37152,146.44458C313.10569,147.57015,463.611035,244.983343,410.10788,242.03803C356.604725,239.092717,311.36131,334.681,190.62714,333.55542C69.89297,332.42985,-69.104084,244.229493,-27.10922,237.96197C14.885644,231.694447,71.63735,145.319,192.37152,146.44458Z" transform="matrix(0.725218 0 0 0.852789 180.286798 124.196348)" fill="rgb(2,2,2)" stroke="rgb(255,255,255)" stroke-width="4" stroke-linecap="round"/><ellipse id="euJO3o0zWsM9" rx="49.439374" ry="42.555411" transform="matrix(1.354429 0 0 1.499998 320.625814 327.926988)" fill="none" stroke="rgb(255,255,255)" stroke-width="1.5"/><path id="euJO3o0zWsM10" d="M69.652579,44.754003C57.365183,51.900047,43.638984,58.846248,39.594364,80.084805C35.549745,101.323362,42.939904,58.152569,50.257743,44.645488C57.575583,31.138406,75.205287,29.397336,87.402006,33.033541C99.598724,36.669746,75.422278,32.649812,69.652579,44.754003Z" transform="matrix(0.495141 -0.495995 0.220262 0.219883 224.112742 326.212956)" fill="none" stroke="rgb(255,255,255)" stroke-width="1" stroke-linecap="round"/><ellipse id="euJO3o0zWsM11" rx="25.571464" ry="25.571464" transform="matrix(1 0 0 1 321.181591 327.137159)" fill="none" stroke="rgb(255,255,255)" stroke-width="1"/><path id="euJO3o0zWsM12" d="M54.163402,41.768811C48.10798,47.318738,41.343493,52.713459,39.350241,69.208242C37.356989,85.703026,40.998975,52.174718,44.605321,41.684534C48.211668,31.194349,56.899863,29.842158,62.910598,32.666193C68.921333,35.490227,57.0068,32.368172,54.163402,41.768811Z" transform="matrix(0.495141 -0.495995 0.220262 0.219883 266.179332 337.076119)" fill="none" stroke="rgb(255,255,255)" stroke-width="1" stroke-linecap="round"/>
</svg>